<?xml version="1.0" encoding="utf-8"?>
<!-- Generator: Adobe Illustrator 15.1.0, SVG Export Plug-In . SVG Version: 6.00 Build 0)  -->
<!DOCTYPE svg PUBLIC "-//W3C//DTD SVG 1.1//EN" "http://www.w3.org/Graphics/SVG/1.1/DTD/svg11.dtd">
<svg version="1.1" id="Layer_1" xmlns="http://www.w3.org/2000/svg" xmlns:xlink="http://www.w3.org/1999/xlink" x="0px" y="0px"
	 width="15px" height="10px" viewBox="0 0 15 10" enable-background="new 0 0 15 10" xml:space="preserve">
<g>
	<path fill="#FFFFFF" d="M0.566,2.234c0-1.016,0.6-1.556,1.727-1.556h1.583c1.116,0,1.727,0.54,1.727,1.556v1.124
		c0,0.108-0.072,0.173-0.192,0.173H4.212C4.08,3.53,4.02,3.465,4.02,3.357V2.536c0-0.281-0.168-0.432-0.479-0.432H2.677
		c-0.324,0-0.479,0.151-0.479,0.432v4.927c0,0.292,0.167,0.432,0.479,0.432h0.864c0.312,0,0.479-0.14,0.479-0.432V6.016H3.396
		c-0.132,0-0.192-0.064-0.192-0.173V4.762c0-0.119,0.06-0.173,0.192-0.173h2.015c0.12,0,0.192,0.054,0.192,0.173v3.003
		c0,1.016-0.611,1.557-1.727,1.557H2.293c-1.127,0-1.727-0.541-1.727-1.557V2.234z"/>
	<path fill="#FFFFFF" d="M8.245,0.678c0.119,0,0.19,0.065,0.19,0.173v8.295c0,0.108-0.071,0.174-0.19,0.174H6.998
		c-0.132,0-0.192-0.064-0.192-0.174V0.851c0-0.108,0.06-0.173,0.192-0.173H8.245z"/>
	<path fill="#FFFFFF" d="M14.434,1.932c0,0.108-0.072,0.173-0.19,0.173H11.27v2.171h2.254c0.119,0,0.191,0.064,0.191,0.173v1.08
		c0,0.119-0.072,0.173-0.191,0.173H11.27v3.446c0,0.107-0.072,0.174-0.191,0.174H9.829c-0.131,0-0.19-0.065-0.19-0.174V0.851
		c0-0.108,0.061-0.173,0.19-0.173h4.414c0.118,0,0.19,0.065,0.19,0.173V1.932z"/>
</g>
</svg>
