<?xml version="1.0" encoding="utf-8"?>
<!-- Generator: Adobe Illustrator 15.1.0, SVG Export Plug-In . SVG Version: 6.00 Build 0)  -->
<!DOCTYPE svg PUBLIC "-//W3C//DTD SVG 1.1//EN" "http://www.w3.org/Graphics/SVG/1.1/DTD/svg11.dtd">
<svg version="1.1" id="Layer_1" xmlns="http://www.w3.org/2000/svg" xmlns:xlink="http://www.w3.org/1999/xlink" x="0px" y="0px"
	 width="45px" height="26px" viewBox="0 0 45 26" enable-background="new 0 0 45 26" xml:space="preserve">
<g>
	<path fill="#FFFFFF" d="M6.315,12.027c0,0.5-0.405,0.878-0.945,0.959v0.027c0.54,0.081,0.945,0.459,0.945,0.959v2.484
		c0,1.27-0.765,1.944-2.175,1.944h-3.6c-0.15,0-0.24-0.081-0.24-0.216V7.814c0-0.149,0.09-0.216,0.24-0.216h3.6
		c1.41,0,2.175,0.675,2.175,1.945V12.027z M4.321,9.921c0-0.351-0.195-0.54-0.6-0.54H2.355v2.728h1.365c0.39,0,0.6-0.189,0.6-0.526
		V9.921z M4.321,14.432c0-0.352-0.195-0.541-0.6-0.541H2.355v2.729h1.365c0.39,0,0.6-0.176,0.6-0.541V14.432z"/>
	<path fill="#FFFFFF" d="M13.8,9.165c0,0.135-0.06,0.229-0.24,0.229h-3.75v2.701h2.865c0.15,0,0.24,0.081,0.24,0.229v1.337
		c0,0.148-0.09,0.229-0.24,0.229H9.811v2.729h3.75c0.18,0,0.24,0.067,0.24,0.216v1.351c0,0.135-0.06,0.216-0.24,0.216h-5.52
		c-0.135,0-0.225-0.081-0.225-0.216V7.814c0-0.135,0.09-0.216,0.225-0.216h5.52c0.18,0,0.24,0.081,0.24,0.216V9.165z"/>
	<path fill="#FFFFFF" d="M17.341,16.619h3.569c0.165,0,0.24,0.08,0.24,0.216v1.351c0,0.148-0.075,0.216-0.24,0.216h-5.369
		c-0.15,0-0.24-0.067-0.24-0.216V7.814c0-0.135,0.09-0.216,0.24-0.216h1.56c0.165,0,0.24,0.081,0.24,0.216V16.619z"/>
	<path fill="#FFFFFF" d="M27.9,7.598c0.164,0,0.3,0.122,0.3,0.27v8.589c0,1.27-0.75,1.944-2.16,1.944h-1.68
		c-1.41,0-2.16-0.675-2.16-1.944V7.868c0-0.148,0.135-0.27,0.3-0.27h1.44c0.165,0,0.3,0.122,0.3,0.27v8.21
		c0,0.365,0.21,0.541,0.6,0.541h0.78c0.39,0,0.6-0.176,0.6-0.541v-8.21c0-0.148,0.136-0.27,0.3-0.27H27.9z"/>
	<path fill="#FFFFFF" d="M29.7,9.543c0-1.27,0.75-1.945,2.16-1.945h1.979c1.396,0,2.16,0.675,2.16,1.945v1.404
		c0,0.135-0.09,0.216-0.24,0.216h-1.5c-0.165,0-0.24-0.081-0.24-0.216V9.921c0-0.351-0.21-0.54-0.6-0.54h-1.08
		c-0.404,0-0.6,0.189-0.6,0.54v6.157c0,0.365,0.21,0.541,0.6,0.541h1.08c0.39,0,0.6-0.176,0.6-0.541V14.27H33.24
		c-0.165,0-0.24-0.082-0.24-0.217v-1.35c0-0.148,0.075-0.216,0.24-0.216h2.52c0.15,0,0.24,0.067,0.24,0.216v3.754
		c0,1.27-0.765,1.944-2.16,1.944H31.86c-1.41,0-2.16-0.675-2.16-1.944V9.543z"/>
	<path fill="#FFFFFF" d="M42.99,18.401c-0.135,0-0.21-0.067-0.24-0.188l-0.42-1.973h-2.67l-0.404,1.973
		c-0.03,0.121-0.105,0.188-0.24,0.188H37.41c-0.165,0-0.239-0.081-0.194-0.229l2.489-10.385c0.03-0.135,0.12-0.189,0.256-0.189
		h2.084c0.136,0,0.226,0.054,0.256,0.189l2.489,10.385c0.03,0.148-0.03,0.229-0.21,0.229H42.99z M40.995,9.961l-0.96,4.712h1.92
		L40.995,9.961z"/>
</g>
</svg>
