<?xml version="1.0" encoding="iso-8859-1"?>
<!-- Generator: Adobe Illustrator 23.0.1, SVG Export Plug-In . SVG Version: 6.00 Build 0)  -->
<svg version="1.1" id="&#x30EC;&#x30A4;&#x30E4;&#x30FC;_1"
	 xmlns="http://www.w3.org/2000/svg" xmlns:xlink="http://www.w3.org/1999/xlink" x="0px" y="0px" width="16px" height="16px"
	 viewBox="0 0 16 16" enable-background="new 0 0 16 16" xml:space="preserve">
<rect x="-1.937" y="-0.436" display="none" fill="#6087AA" width="21.496" height="19.138"/>
<image display="none" overflow="visible" width="450" height="380" xlink:href="../Downloads/shark-logo-template-450w-557214181.jpg"  transform="matrix(-0.0684 0 0 0.0684 22.7895 -2)">
</image>
<path fill="#FFFFFF" d="M1.3,11.778c0.562,0.313,2.171,0.661,3.802,0.585c1.631-0.075,3.376-0.731,5.163-0.712
	c1.787,0.02,3.161,0.485,4.435,1.299c-1.059-4.67-4.575-8.988-9.619-9.902c1.041,1.672,1.135,5.553,1.1,6.912
	C6.61,9.344,7.183,6.9,7.142,5.488c1.525,0.277,3.553,2.927,4.163,4.557c-0.688-0.11-1.246-0.07-2.135,0.06
	c-0.889,0.13-2.972,1.157-3.811,1.389C4.519,11.727,2.044,11.945,1.3,11.778z"/>
<g>
</g>
<g>
</g>
<g>
</g>
<g>
</g>
<g>
</g>
<g>
</g>
<g>
</g>
<g>
</g>
<g>
</g>
<g>
</g>
<g>
</g>
<g>
</g>
<g>
</g>
<g>
</g>
<g>
</g>
</svg>
