<?xml version="1.0" encoding="utf-8"?>
<!-- Generator: Adobe Illustrator 23.0.1, SVG Export Plug-In . SVG Version: 6.00 Build 0)  -->
<svg version="1.1" id="レイヤー_1" xmlns="http://www.w3.org/2000/svg" xmlns:xlink="http://www.w3.org/1999/xlink" x="0px"
	 y="0px" width="24px" height="24px" viewBox="0 0 24 24" style="enable-background:new 0 0 24 24;" xml:space="preserve">
<style type="text/css">
	.st0{fill:none;stroke:#FFFFFF;stroke-width:2;stroke-linejoin:round;stroke-miterlimit:10;}
</style>
<path class="st0" d="M9.2,19.6c-5,1.5-5-2.5-7-3 M16.2,22.6v-3.9c0.1-1-0.3-1.9-0.9-2.6c3.1-0.4,6.4-1.5,6.4-7
	c0-1.4-0.5-2.7-1.5-3.8c0.5-1.2,0.4-2.6-0.1-3.8c0,0-1.2-0.4-3.9,1.5c-2.3-0.6-4.7-0.6-7,0C6.6,1.2,5.3,1.6,5.3,1.6
	C4.8,2.8,4.8,4.1,5.2,5.4c-1,1-1.5,2.4-1.5,3.8c0,5.4,3.3,6.6,6.4,7c-0.7,0.7-1,1.6-0.9,2.6v3.8"/>
</svg>
